<?xml version="1.0" encoding="UTF-8"?>
<svg xmlns="http://www.w3.org/2000/svg" viewBox="0 0 1495.09 532.17">
  <defs>
    <style>
      .cls-1, .cls-2, .cls-3, .cls-4, .cls-5, .cls-6, .cls-7, .cls-8, .cls-9, .cls-10, .cls-11, .cls-12 {
        fill: none;
      }

      .cls-1, .cls-4, .cls-7, .cls-8, .cls-9, .cls-12 {
        stroke-linejoin: round;
      }

      .cls-1, .cls-6, .cls-13, .cls-10, .cls-14 {
        stroke: #595757;
      }

      .cls-1, .cls-8, .cls-10, .cls-14, .cls-15 {
        stroke-width: 2px;
      }

      .cls-2 {
        stroke-width: 16px;
      }

      .cls-2, .cls-3, .cls-16, .cls-6, .cls-17, .cls-18, .cls-13, .cls-10, .cls-11, .cls-14, .cls-15 {
        stroke-miterlimit: 10;
      }

      .cls-2, .cls-3, .cls-16, .cls-18, .cls-11, .cls-12, .cls-15 {
        stroke: #1c4c75;
      }

      .cls-3 {
        stroke-width: 8px;
      }

      .cls-4, .cls-6, .cls-7, .cls-8, .cls-11, .cls-12 {
        stroke-linecap: round;
      }

      .cls-4, .cls-7, .cls-8, .cls-9 {
        stroke: #fff;
      }

      .cls-4, .cls-9 {
        stroke-width: 4px;
      }

      .cls-19 {
        fill: #f3de60;
      }

      .cls-20, .cls-17, .cls-13 {
        fill: #fff;
      }

      .cls-16, .cls-18, .cls-21, .cls-15 {
        fill: #1c4c75;
      }

      .cls-6 {
        stroke-width: 6px;
      }

      .cls-22 {
        fill: #595757;
      }

      .cls-7, .cls-13 {
        stroke-width: 3px;
      }

      .cls-17 {
        stroke: #f7fafb;
      }

      .cls-18 {
        stroke-width: 1.4px;
      }

      .cls-11, .cls-12 {
        stroke-width: 5px;
      }

      .cls-14 {
        fill: #efefef;
      }
    </style>
  </defs>
  <g id="_文字" data-name="文字">
    <g>
      <g>
        <rect class="cls-5" x="516.01" y="69.94" width="1104.15" height="237.02"/>
        <path class="cls-21" d="M532.76,260.42V124.08h30.19l23.19,64.03c1.47,4.05,2.88,8.31,4.23,12.79,1.35,4.48,2.7,8.86,4.05,13.16h.92c1.47-4.29,2.88-8.68,4.23-13.16,1.35-4.48,2.64-8.74,3.87-12.79l22.82-64.03h30.19v136.34h-24.85v-56.85c0-4.42.18-9.26.55-14.54.37-5.27.83-10.58,1.38-15.92.55-5.34,1.07-10.09,1.56-14.26h-.74l-11.23,32.01-20.98,57.22h-15.64l-21.17-57.22-10.86-32.01h-.74c.49,4.17.98,8.92,1.47,14.26.49,5.34.95,10.64,1.38,15.92.43,5.28.64,10.12.64,14.54v56.85h-24.48Z"/>
        <path class="cls-21" d="M686.63,260.42V124.08h27.24v136.34h-27.24Z"/>
        <path class="cls-21" d="M744.23,260.42V124.08h47.3c9.69,0,18.41,1.26,26.14,3.77,7.73,2.52,13.86,6.81,18.41,12.88,4.54,6.07,6.81,14.32,6.81,24.75s-2.27,18.31-6.81,24.75c-4.54,6.44-10.68,11.16-18.41,14.17-7.73,3.01-16.44,4.51-26.14,4.51h-20.06v51.52h-27.24ZM771.47,187.38h17.67c8.83,0,15.55-1.84,20.15-5.52s6.9-9.14,6.9-16.38-2.3-12.48-6.9-15.36c-4.6-2.88-11.32-4.32-20.15-4.32h-17.67v41.58ZM818.22,260.42l-31.66-58.51,19.14-16.93,43.07,75.44h-30.55Z"/>
      </g>
      <g>
        <path class="cls-22" d="M1154.46,260.42V124.08h27.24v108.57h55.4v27.77h-82.64Z"/>
        <path class="cls-22" d="M1280.72,262.99c-6.01,0-11.32-1.32-15.92-3.96-4.6-2.64-8.16-6.28-10.67-10.95-2.52-4.66-3.77-9.94-3.77-15.82,0-10.92,4.72-19.41,14.17-25.48,9.45-6.07,24.48-10.21,45.09-12.42-.12-3.43-.74-6.47-1.84-9.11-1.1-2.64-2.92-4.75-5.43-6.35-2.52-1.59-5.92-2.39-10.21-2.39-4.79,0-9.51.92-14.17,2.76-4.66,1.84-9.39,4.23-14.17,7.18l-9.57-18.03c4.05-2.58,8.34-4.84,12.88-6.81,4.54-1.96,9.32-3.59,14.36-4.88,5.03-1.29,10.24-1.93,15.64-1.93,8.71,0,16.01,1.72,21.9,5.15,5.89,3.44,10.31,8.53,13.25,15.27,2.94,6.75,4.42,15.09,4.42,25.02v60.17h-27.06v-9.16c-4.42,3.93-6.99,5.29-12.15,7.87-5.15,2.58-10.74,3.86-16.75,3.86ZM1289.74,241.83c3.8,0,7.27-.89,10.4-2.67,3.13-1.78,6.29-4.26,9.48-7.45v-20.61c-8.35.98-14.97,2.39-19.88,4.23-4.91,1.84-8.41,4.02-10.49,6.53-2.09,2.52-3.13,5.31-3.13,8.37,0,4.05,1.26,6.99,3.77,8.83,2.51,1.84,5.8,2.76,9.85,2.76Z"/>
        <path class="cls-22" d="M1412.87,262.99c-4.54,0-9.2-1.17-13.99-3.5-4.79-2.33-6.32-2.82-10.49-7.11v8.03h-27.24V124.08h27.24v42.1c4.17-3.68,7.64-5.7,12.61-7.97,4.97-2.27,9.97-3.4,15-3.4,8.47,0,15.74,2.18,21.81,6.53,6.07,4.36,10.74,10.43,13.99,18.22,3.25,7.79,4.88,16.96,4.88,27.51,0,11.78-2.09,21.87-6.26,30.27-4.17,8.4-9.6,14.78-16.29,19.14-6.69,4.35-13.78,6.53-21.26,6.53ZM1406.98,240.73c4.05,0,7.73-1.2,11.04-3.59,3.31-2.39,5.95-6.04,7.91-10.95,1.96-4.9,2.94-11.1,2.94-18.58,0-6.5-.74-12.05-2.21-16.65-1.47-4.6-3.68-8.06-6.63-10.4-2.94-2.33-6.81-3.5-11.6-3.5-3.44,0-6.78.86-10.03,2.58-3.25,1.72-6.66,4.36-10.22,7.91v45.45c3.19,2.94,6.41,4.97,9.66,6.07,3.25,1.1,6.29,1.66,9.11,1.66Z"/>
      </g>
      <rect class="cls-20" x="527.8" y="117.07" width="130.25" height="144.71"/>
      <path class="cls-21" d="M532.76,260.43V124.09h30.19l31.47,72.02h.92l30.92-72.02h30.19v136.34h-24.85v-93.69l-29.45,63.41h-15.64l-29.27-63.14v93.42h-24.48Z"/>
      <rect class="cls-20" x="850.9" y="150.58" width="106.88" height="116.34"/>
      <rect class="cls-20" x="1388.21" y="119.24" width="106.88" height="147.68"/>
      <rect class="cls-20" x="957.79" y="114.72" width="146.32" height="152.19"/>
      <ellipse class="cls-21" cx="904.35" cy="211.33" rx="45.07" ry="51.34"/>
      <ellipse class="cls-21" cx="1029.68" cy="192.26" rx="61.18" ry="68.17"/>
      <ellipse class="cls-20" cx="904.35" cy="211.33" rx="24.8" ry="28.24"/>
      <ellipse class="cls-20" cx="1029.68" cy="192.26" rx="35.72" ry="39.8"/>
      <polygon class="cls-20" points="1037.36 192.26 1092.74 122.59 1092.74 192.26 1037.36 192.26"/>
      <polygon class="cls-20" points="1037.36 192.26 1092.74 261.93 1092.74 192.26 1037.36 192.26"/>
      <ellipse class="cls-22" cx="1414.69" cy="211.11" rx="40.73" ry="51.56"/>
      <ellipse class="cls-20" cx="1409.89" cy="211.11" rx="22.41" ry="28.37"/>
    </g>
    <g>
      <rect class="cls-5" x="526.01" y="294.57" width="775.47" height="77.38"/>
      <path class="cls-22" d="M531.42,312.15h5.29l.87,25.8v16.5h-6.16v-42.3ZM533.38,312.15h6l15.29,34.49,15.26-34.49h6.03l-18.98,42.3h-4.68l-18.91-42.3ZM572.59,312.15h5.29v42.3h-6.16v-16.5l.87-25.8Z"/>
      <path class="cls-22" d="M602.9,355.03c-2.42,0-4.6-.37-6.56-1.12-1.96-.75-3.63-1.8-5.03-3.15-1.4-1.36-2.47-2.96-3.22-4.82-.75-1.86-1.12-3.89-1.12-6.1v-1.22c0-2.56.42-4.84,1.25-6.84.83-2,1.97-3.7,3.4-5.1,1.43-1.39,3.06-2.45,4.87-3.17,1.82-.72,3.7-1.07,5.64-1.07,2.48,0,4.62.39,6.43,1.16,1.81.77,3.29,1.85,4.44,3.24,1.15,1.39,2.01,3.01,2.56,4.88.56,1.87.83,3.91.83,6.12v2.41h-25.9v-4.39h19.97v-.41c-.09-1.39-.4-2.75-.95-4.07-.54-1.32-1.41-2.4-2.58-3.25-1.18-.85-2.78-1.28-4.81-1.28-1.35,0-2.59.26-3.72.77s-2.1,1.27-2.92,2.28c-.81,1.01-1.44,2.24-1.89,3.69s-.67,3.13-.67,5.03v1.22c0,1.49.23,2.89.69,4.2.46,1.31,1.13,2.46,2.02,3.44.89.99,1.97,1.76,3.24,2.32,1.27.56,2.72.84,4.34.84,2.09,0,3.87-.39,5.32-1.16,1.45-.77,2.73-1.81,3.81-3.11l3.59,2.59c-.75,1.03-1.7,2-2.85,2.93s-2.57,1.69-4.25,2.27c-1.68.58-3.66.87-5.95.87Z"/>
      <path class="cls-22" d="M622.5,339.08v-.61c0-2.4.33-4.59.98-6.55.65-1.97,1.58-3.66,2.79-5.07,1.21-1.41,2.65-2.5,4.33-3.27,1.68-.76,3.55-1.15,5.63-1.15,2.18,0,4.09.34,5.72,1.03,1.64.69,3.02,1.69,4.17,2.99,1.14,1.31,2.05,2.88,2.71,4.72.66,1.84,1.12,3.92,1.38,6.25v2.67c-.24,2.31-.69,4.38-1.36,6.22-.67,1.84-1.58,3.41-2.73,4.71-1.14,1.3-2.54,2.29-4.18,2.98-1.65.69-3.57,1.03-5.77,1.03-2.03,0-3.88-.4-5.56-1.19-1.68-.79-3.12-1.91-4.33-3.34-1.21-1.43-2.14-3.12-2.79-5.07-.65-1.95-.98-4.06-.98-6.35ZM628.46,338.47v.61c0,1.57.18,3.04.53,4.42.35,1.38.9,2.59,1.65,3.63.75,1.05,1.7,1.86,2.85,2.46,1.15.59,2.53.89,4.14.89,1.97,0,3.58-.38,4.86-1.13,1.27-.76,2.29-1.75,3.06-2.99.77-1.24,1.37-2.59,1.8-4.04v-7c-.26-1.07-.62-2.1-1.11-3.09s-1.1-1.89-1.86-2.67c-.76-.78-1.69-1.41-2.79-1.87-1.1-.46-2.4-.7-3.9-.7-1.62,0-3.02.31-4.18.92-1.17.61-2.12,1.44-2.87,2.5-.75,1.06-1.3,2.28-1.65,3.66-.35,1.39-.53,2.86-.53,4.43ZM645.84,348.35v-38.52h5.96v44.62h-5.45l-.51-6.1Z"/>
      <path class="cls-22" d="M661.69,314.68c0-.87.29-1.61.88-2.21.59-.6,1.46-.9,2.61-.9s2,.3,2.61.9c.61.6.91,1.34.91,2.21s-.3,1.54-.91,2.14c-.61.59-1.48.89-2.61.89s-2.03-.29-2.61-.89c-.59-.59-.88-1.3-.88-2.14ZM668.11,323.02v31.44h-5.96v-31.44h5.96Z"/>
      <path class="cls-22" d="M692.16,350.62c1.41,0,2.71-.26,3.91-.78,1.2-.52,2.18-1.24,2.95-2.16.77-.92,1.21-1.97,1.31-3.15h5.64c-.11,1.86-.8,3.59-2.07,5.19-1.27,1.6-2.93,2.89-4.99,3.86-2.05.98-4.31,1.47-6.76,1.47-2.61,0-4.88-.42-6.81-1.25-1.93-.83-3.54-1.98-4.81-3.43-1.27-1.45-2.22-3.12-2.85-5.01-.63-1.89-.95-3.89-.95-6v-1.22c0-2.11.31-4.11.95-6,.63-1.89,1.58-3.56,2.85-5.01,1.27-1.45,2.87-2.6,4.81-3.43,1.93-.83,4.2-1.25,6.81-1.25s5.09.5,7.12,1.5c2.03,1,3.63,2.35,4.79,4.07,1.16,1.71,1.8,3.66,1.91,5.83h-5.64c-.11-1.3-.51-2.47-1.2-3.52-.69-1.05-1.63-1.88-2.82-2.51-1.19-.63-2.57-.94-4.15-.94-1.82,0-3.34.32-4.57.97-1.23.65-2.2,1.52-2.92,2.61-.72,1.09-1.23,2.31-1.54,3.63-.31,1.33-.46,2.68-.46,4.05v1.22c0,1.38.15,2.73.45,4.07.3,1.34.81,2.55,1.52,3.63.72,1.08,1.69,1.95,2.92,2.6s2.76.97,4.6.97Z"/>
      <path class="cls-22" d="M734.79,335.39l.06,3.78h-6c-1.69,0-3.2.12-4.52.36s-2.44.61-3.33,1.09c-.9.48-1.58,1.09-2.05,1.82-.47.73-.71,1.57-.71,2.54s.25,1.89.74,2.7c.49.81,1.23,1.46,2.23,1.93.99.48,2.22.71,3.67.71,1.82,0,3.42-.35,4.81-1.05,1.39-.7,2.5-1.55,3.32-2.56.82-1.01,1.27-1.99,1.33-2.93l2.53,2.59c-.15.81-.56,1.71-1.22,2.7-.66.99-1.54,1.93-2.65,2.83-1.1.9-2.4,1.65-3.91,2.24-1.51.59-3.2.89-5.08.89-2.35,0-4.41-.42-6.17-1.25-1.76-.83-3.13-1.95-4.1-3.36-.97-1.4-1.46-2.98-1.46-4.72s.36-3.17,1.09-4.46c.73-1.29,1.77-2.36,3.14-3.22s3.01-1.52,4.94-1.96c1.92-.45,4.07-.67,6.44-.67h6.89ZM733.76,349.08v-16.18c0-1.24-.27-2.32-.82-3.24s-1.36-1.63-2.45-2.14c-1.09-.5-2.44-.76-4.04-.76-1.5,0-2.81.23-3.93.7s-2,1.08-2.63,1.83c-.63.76-.95,1.57-.95,2.44h-5.93c0-1.12.32-2.24.96-3.34.64-1.1,1.57-2.11,2.77-3.01,1.21-.9,2.66-1.62,4.36-2.15,1.7-.53,3.6-.8,5.69-.8,2.52,0,4.75.39,6.68,1.16,1.93.77,3.45,1.94,4.55,3.5,1.1,1.56,1.65,3.51,1.65,5.85v14.64c0,1.05.1,2.16.3,3.34.2,1.18.51,2.2.91,3.05v.46h-6.19c-.3-.62-.53-1.45-.71-2.48-.17-1.04-.26-2-.26-2.89Z"/>
      <path class="cls-22" d="M756.12,309.83v44.62h-5.96v-44.62h5.96Z"/>
      <path class="cls-22" d="M790.77,312.15v42.3h-6.19v-42.3h6.19Z"/>
      <path class="cls-22" d="M807.69,329.73v24.72h-5.93v-31.44h5.61l.32,6.71ZM806.27,337.54l-2.47-.09c.02-2.15.37-4.14,1.06-5.97.68-1.83,1.65-3.42,2.89-4.78,1.24-1.36,2.72-2.41,4.44-3.15,1.72-.75,3.63-1.12,5.72-1.12,1.71,0,3.25.21,4.62.62,1.37.42,2.54,1.08,3.51,1.99.97.91,1.72,2.09,2.23,3.53.51,1.44.77,3.2.77,5.27v20.6h-5.96v-20.66c0-1.65-.27-2.97-.8-3.97-.53-1-1.31-1.72-2.34-2.18-1.03-.45-2.29-.68-3.78-.68s-2.82.28-4.02.84c-1.21.56-2.24,1.34-3.11,2.32-.87.99-1.54,2.12-2.02,3.38-.48,1.27-.72,2.61-.72,4.02Z"/>
      <path class="cls-22" d="M853.19,323.02v4.13h-18.75v-4.13h18.75ZM840.78,315.38h5.93v31.29c0,1.07.18,1.87.55,2.41.36.54.83.9,1.41,1.08.58.17,1.2.26,1.86.26.49,0,1.01-.04,1.56-.13.54-.09.96-.16,1.23-.22l.03,4.39c-.47.14-1.08.27-1.84.39-.76.13-1.67.19-2.74.19-1.45,0-2.79-.26-4.01-.78-1.22-.52-2.19-1.4-2.9-2.63-.72-1.23-1.07-2.89-1.07-4.98v-31.26Z"/>
      <path class="cls-22" d="M875.2,355.03c-2.42,0-4.6-.37-6.56-1.12-1.96-.75-3.63-1.8-5.03-3.15-1.4-1.36-2.47-2.96-3.22-4.82-.75-1.86-1.12-3.89-1.12-6.1v-1.22c0-2.56.42-4.84,1.25-6.84.83-2,1.97-3.7,3.4-5.1,1.43-1.39,3.06-2.45,4.87-3.17,1.82-.72,3.7-1.07,5.64-1.07,2.48,0,4.62.39,6.43,1.16,1.81.77,3.29,1.85,4.44,3.24,1.15,1.39,2.01,3.01,2.56,4.88.56,1.87.83,3.91.83,6.12v2.41h-25.9v-4.39h19.97v-.41c-.09-1.39-.4-2.75-.95-4.07-.54-1.32-1.41-2.4-2.58-3.25-1.18-.85-2.78-1.28-4.81-1.28-1.35,0-2.59.26-3.72.77s-2.1,1.27-2.92,2.28c-.81,1.01-1.44,2.24-1.89,3.69s-.67,3.13-.67,5.03v1.22c0,1.49.23,2.89.69,4.2.46,1.31,1.13,2.46,2.02,3.44.89.99,1.97,1.76,3.24,2.32,1.27.56,2.72.84,4.34.84,2.09,0,3.87-.39,5.32-1.16,1.45-.77,2.73-1.81,3.81-3.11l3.59,2.59c-.75,1.03-1.7,2-2.85,2.93s-2.57,1.69-4.25,2.27c-1.68.58-3.66.87-5.95.87Z"/>
      <path class="cls-22" d="M902.72,309.83v44.62h-5.96v-44.62h5.96Z"/>
      <path class="cls-22" d="M919.34,309.83v44.62h-5.96v-44.62h5.96Z"/>
      <path class="cls-22" d="M929.55,314.68c0-.87.29-1.61.88-2.21.59-.6,1.46-.9,2.61-.9s2,.3,2.61.9c.61.6.91,1.34.91,2.21s-.3,1.54-.91,2.14c-.61.59-1.48.89-2.61.89s-2.03-.29-2.61-.89c-.59-.59-.88-1.3-.88-2.14ZM935.97,323.02v31.44h-5.96v-31.44h5.96Z"/>
      <path class="cls-22" d="M944.73,339.08v-.61c0-2.4.31-4.59.95-6.55.63-1.97,1.54-3.66,2.72-5.07,1.19-1.41,2.62-2.5,4.31-3.27,1.69-.76,3.59-1.15,5.71-1.15s4.09.34,5.72,1.03c1.63.69,3.02,1.69,4.17,2.99,1.14,1.31,2.05,2.88,2.71,4.72.66,1.84,1.12,3.92,1.38,6.25v2.67c-.24,2.31-.69,4.38-1.36,6.22-.67,1.84-1.58,3.41-2.73,4.71-1.14,1.3-2.54,2.29-4.18,2.98-1.65.69-3.57,1.03-5.77,1.03-2.07,0-3.95-.4-5.63-1.19-1.68-.79-3.12-1.91-4.31-3.34-1.2-1.43-2.11-3.12-2.74-5.07-.63-1.95-.95-4.06-.95-6.35ZM968.62,323.02h5.39v30.77c0,2.77-.62,5.13-1.86,7.09-1.24,1.96-2.97,3.44-5.18,4.46-2.21,1.02-4.76,1.52-7.65,1.52-1.2,0-2.6-.17-4.22-.51-1.61-.34-3.2-.91-4.75-1.71-1.55-.8-2.85-1.88-3.9-3.24l3.11-3.2c1.45,1.59,2.98,2.69,4.57,3.31,1.59.62,3.17.93,4.73.93,1.88,0,3.5-.32,4.87-.96,1.37-.64,2.43-1.58,3.19-2.83.76-1.25,1.14-2.78,1.14-4.6v-24.11l.54-6.91ZM950.66,338.47v.61c0,1.57.18,3.04.53,4.42.35,1.38.9,2.59,1.64,3.63s1.68,1.86,2.84,2.46c1.15.59,2.53.89,4.14.89,1.97,0,3.59-.38,4.87-1.13s2.3-1.75,3.06-2.99c.76-1.24,1.35-2.59,1.78-4.04v-7c-.24-1.07-.59-2.1-1.07-3.09s-1.1-1.89-1.86-2.67c-.76-.78-1.69-1.41-2.81-1.87-1.11-.46-2.42-.7-3.91-.7-1.62,0-3.02.31-4.18.92-1.17.61-2.12,1.44-2.85,2.5-.74,1.06-1.28,2.28-1.64,3.66-.35,1.39-.53,2.86-.53,4.43Z"/>
      <path class="cls-22" d="M998.06,355.03c-2.42,0-4.6-.37-6.56-1.12-1.96-.75-3.63-1.8-5.03-3.15-1.4-1.36-2.47-2.96-3.22-4.82-.75-1.86-1.12-3.89-1.12-6.1v-1.22c0-2.56.42-4.84,1.25-6.84.83-2,1.97-3.7,3.4-5.1,1.43-1.39,3.06-2.45,4.87-3.17,1.82-.72,3.7-1.07,5.64-1.07,2.48,0,4.62.39,6.43,1.16,1.81.77,3.29,1.85,4.44,3.24,1.15,1.39,2.01,3.01,2.56,4.88.56,1.87.83,3.91.83,6.12v2.41h-25.9v-4.39h19.97v-.41c-.09-1.39-.4-2.75-.95-4.07-.54-1.32-1.41-2.4-2.58-3.25-1.18-.85-2.78-1.28-4.81-1.28-1.35,0-2.59.26-3.72.77s-2.1,1.27-2.92,2.28c-.81,1.01-1.44,2.24-1.89,3.69s-.67,3.13-.67,5.03v1.22c0,1.49.23,2.89.69,4.2.46,1.31,1.13,2.46,2.02,3.44.89.99,1.97,1.76,3.24,2.32,1.27.56,2.72.84,4.34.84,2.09,0,3.87-.39,5.32-1.16,1.45-.77,2.73-1.81,3.81-3.11l3.59,2.59c-.75,1.03-1.7,2-2.85,2.93s-2.57,1.69-4.25,2.27c-1.68.58-3.66.87-5.95.87Z"/>
      <path class="cls-22" d="M1025.07,329.73v24.72h-5.93v-31.44h5.61l.32,6.71ZM1023.66,337.54l-2.47-.09c.02-2.15.37-4.14,1.06-5.97.68-1.83,1.65-3.42,2.89-4.78,1.24-1.36,2.72-2.41,4.44-3.15,1.72-.75,3.63-1.12,5.72-1.12,1.71,0,3.25.21,4.62.62,1.37.42,2.54,1.08,3.51,1.99.97.91,1.72,2.09,2.23,3.53.51,1.44.77,3.2.77,5.27v20.6h-5.96v-20.66c0-1.65-.27-2.97-.8-3.97-.53-1-1.31-1.72-2.34-2.18-1.03-.45-2.29-.68-3.78-.68s-2.82.28-4.02.84c-1.21.56-2.24,1.34-3.11,2.32-.87.99-1.54,2.12-2.02,3.38-.48,1.27-.72,2.61-.72,4.02Z"/>
      <path class="cls-22" d="M1069.94,350.62c1.41,0,2.71-.26,3.91-.78,1.2-.52,2.18-1.24,2.95-2.16s1.21-1.97,1.31-3.15h5.64c-.11,1.86-.8,3.59-2.07,5.19-1.27,1.6-2.93,2.89-4.99,3.86-2.05.98-4.31,1.47-6.76,1.47-2.61,0-4.88-.42-6.81-1.25-1.93-.83-3.54-1.98-4.81-3.43-1.27-1.45-2.22-3.12-2.85-5.01-.63-1.89-.95-3.89-.95-6v-1.22c0-2.11.32-4.11.95-6,.63-1.89,1.58-3.56,2.85-5.01,1.27-1.45,2.87-2.6,4.81-3.43,1.93-.83,4.21-1.25,6.81-1.25s5.09.5,7.12,1.5c2.03,1,3.63,2.35,4.79,4.07,1.17,1.71,1.8,3.66,1.91,5.83h-5.64c-.11-1.3-.51-2.47-1.2-3.52-.7-1.05-1.64-1.88-2.82-2.51-1.19-.63-2.57-.94-4.15-.94-1.82,0-3.34.32-4.57.97-1.23.65-2.2,1.52-2.92,2.61-.72,1.09-1.23,2.31-1.54,3.63s-.46,2.68-.46,4.05v1.22c0,1.38.15,2.73.45,4.07.3,1.34.81,2.55,1.52,3.63.72,1.08,1.69,1.95,2.92,2.6,1.23.65,2.76.97,4.6.97Z"/>
      <path class="cls-22" d="M1105.47,355.03c-2.42,0-4.6-.37-6.56-1.12-1.96-.75-3.63-1.8-5.03-3.15-1.4-1.36-2.47-2.96-3.22-4.82s-1.12-3.89-1.12-6.1v-1.22c0-2.56.42-4.84,1.25-6.84.83-2,1.97-3.7,3.4-5.1s3.06-2.45,4.87-3.17c1.82-.72,3.7-1.07,5.64-1.07,2.48,0,4.62.39,6.43,1.16,1.81.77,3.29,1.85,4.44,3.24,1.15,1.39,2.01,3.01,2.56,4.88.56,1.87.83,3.91.83,6.12v2.41h-25.9v-4.39h19.97v-.41c-.09-1.39-.4-2.75-.95-4.07-.54-1.32-1.41-2.4-2.58-3.25-1.18-.85-2.78-1.28-4.81-1.28-1.35,0-2.59.26-3.72.77-1.13.51-2.11,1.27-2.92,2.28-.81,1.01-1.44,2.24-1.89,3.69-.45,1.45-.67,3.13-.67,5.03v1.22c0,1.49.23,2.89.69,4.2.46,1.31,1.13,2.46,2.02,3.44s1.97,1.76,3.24,2.32c1.27.56,2.72.84,4.34.84,2.09,0,3.87-.39,5.32-1.16,1.45-.77,2.73-1.81,3.82-3.11l3.59,2.59c-.75,1.03-1.7,2-2.85,2.93s-2.57,1.69-4.25,2.27-3.66.87-5.95.87Z"/>
      <path class="cls-22" d="M1164.97,335.39l.06,3.78h-6c-1.69,0-3.2.12-4.52.36-1.33.24-2.44.61-3.33,1.09-.9.48-1.58,1.09-2.05,1.82-.47.73-.71,1.57-.71,2.54s.25,1.89.74,2.7c.49.81,1.23,1.46,2.23,1.93.99.48,2.22.71,3.67.71,1.82,0,3.42-.35,4.81-1.05,1.39-.7,2.5-1.55,3.32-2.56.82-1.01,1.27-1.99,1.33-2.93l2.53,2.59c-.15.81-.56,1.71-1.22,2.7-.66.99-1.54,1.93-2.64,2.83-1.1.9-2.4,1.65-3.91,2.24-1.51.59-3.2.89-5.08.89-2.35,0-4.41-.42-6.17-1.25-1.76-.83-3.13-1.95-4.1-3.36-.97-1.4-1.46-2.98-1.46-4.72s.36-3.17,1.09-4.46c.73-1.29,1.77-2.36,3.14-3.22,1.37-.86,3.01-1.52,4.94-1.96,1.92-.45,4.07-.67,6.44-.67h6.89ZM1163.95,349.08v-16.18c0-1.24-.27-2.32-.82-3.24s-1.36-1.63-2.45-2.14c-1.09-.5-2.44-.76-4.04-.76-1.5,0-2.8.23-3.93.7s-2,1.08-2.63,1.83c-.63.76-.95,1.57-.95,2.44h-5.93c0-1.12.32-2.24.96-3.34.64-1.1,1.57-2.11,2.77-3.01,1.21-.9,2.66-1.62,4.36-2.15,1.7-.53,3.6-.8,5.69-.8,2.52,0,4.75.39,6.68,1.16,1.93.77,3.45,1.94,4.55,3.5,1.1,1.56,1.65,3.51,1.65,5.85v14.64c0,1.05.1,2.16.3,3.34.2,1.18.51,2.2.91,3.05v.46h-6.19c-.3-.62-.53-1.45-.71-2.48-.17-1.04-.26-2-.26-2.89Z"/>
      <path class="cls-22" d="M1185.79,329.73v24.72h-5.93v-31.44h5.61l.32,6.71ZM1184.38,337.54l-2.47-.09c.02-2.15.37-4.14,1.06-5.97.68-1.83,1.65-3.42,2.89-4.78,1.24-1.36,2.72-2.41,4.44-3.15s3.63-1.12,5.72-1.12c1.71,0,3.25.21,4.62.62,1.37.42,2.54,1.08,3.51,1.99.97.91,1.71,2.09,2.23,3.53.51,1.44.77,3.2.77,5.27v20.6h-5.96v-20.66c0-1.65-.27-2.97-.8-3.97s-1.31-1.72-2.34-2.18c-1.03-.45-2.29-.68-3.78-.68s-2.82.28-4.02.84c-1.21.56-2.24,1.34-3.11,2.32-.87.99-1.54,2.12-2.02,3.38-.48,1.27-.72,2.61-.72,4.02Z"/>
      <path class="cls-22" d="M1215.3,339.08v-.61c0-2.4.33-4.59.98-6.55.65-1.97,1.58-3.66,2.79-5.07,1.21-1.41,2.65-2.5,4.33-3.27,1.68-.76,3.55-1.15,5.63-1.15,2.18,0,4.09.34,5.72,1.03,1.63.69,3.02,1.69,4.17,2.99,1.14,1.31,2.05,2.88,2.71,4.72.66,1.84,1.12,3.92,1.38,6.25v2.67c-.24,2.31-.69,4.38-1.36,6.22-.67,1.84-1.58,3.41-2.72,4.71-1.14,1.3-2.54,2.29-4.18,2.98-1.65.69-3.57,1.03-5.77,1.03-2.03,0-3.88-.4-5.56-1.19-1.68-.79-3.12-1.91-4.33-3.34-1.21-1.43-2.14-3.12-2.79-5.07-.65-1.95-.98-4.06-.98-6.35ZM1221.27,338.47v.61c0,1.57.18,3.04.53,4.42.35,1.38.9,2.59,1.65,3.63s1.7,1.86,2.85,2.46,2.53.89,4.14.89c1.97,0,3.58-.38,4.86-1.13s2.29-1.75,3.06-2.99c.77-1.24,1.37-2.59,1.8-4.04v-7c-.26-1.07-.63-2.1-1.11-3.09s-1.1-1.89-1.86-2.67c-.76-.78-1.69-1.41-2.79-1.87-1.1-.46-2.4-.7-3.9-.7-1.62,0-3.02.31-4.18.92-1.17.61-2.12,1.44-2.87,2.5-.75,1.06-1.3,2.28-1.65,3.66-.35,1.39-.53,2.86-.53,4.43ZM1238.64,348.35v-38.52h5.96v44.62h-5.45l-.51-6.1Z"/>
    </g>
    <g>
      <rect class="cls-5" x="526.01" y="363.93" width="878.74" height="77.38"/>
      <path class="cls-22" d="M531.42,381.52h15.45c3.5,0,6.47.48,8.9,1.45,2.43.97,4.27,2.4,5.55,4.29,1.27,1.89,1.91,4.21,1.91,6.96,0,1.94-.43,3.7-1.3,5.3-.87,1.6-2.11,2.95-3.72,4.07-1.61,1.11-3.54,1.94-5.79,2.48l-1.73.61h-14.52l-.06-4.56h10.96c2.22,0,4.07-.35,5.55-1.06s2.59-1.66,3.33-2.86c.75-1.2,1.12-2.53,1.12-3.98,0-1.63-.35-3.05-1.06-4.27-.71-1.22-1.81-2.16-3.32-2.83-1.51-.67-3.45-1-5.82-1h-9.26v37.71h-6.19v-42.3ZM558.71,423.82l-11.35-19.17,6.44-.03,11.51,18.86v.35h-6.6Z"/>
      <path class="cls-22" d="M570.07,408.45v-.67c0-2.27.36-4.37,1.09-6.32.73-1.95,1.77-3.64,3.14-5.08,1.37-1.44,3.02-2.57,4.97-3.37,1.94-.8,4.12-1.21,6.54-1.21s4.63.4,6.59,1.21c1.96.8,3.62,1.93,5,3.37,1.38,1.44,2.43,3.14,3.16,5.08.73,1.95,1.09,4.05,1.09,6.32v.67c0,2.27-.36,4.37-1.09,6.3-.73,1.94-1.78,3.63-3.16,5.07-1.38,1.44-3.04,2.57-4.97,3.37-1.93.8-4.12,1.21-6.56,1.21s-4.63-.4-6.57-1.21c-1.94-.8-3.61-1.93-4.98-3.37s-2.43-3.13-3.16-5.07c-.73-1.94-1.09-4.04-1.09-6.3ZM576,407.78v.67c0,1.57.2,3.05.61,4.43.41,1.39,1.02,2.61,1.84,3.68.82,1.07,1.85,1.9,3.09,2.51,1.24.61,2.68.92,4.33.92s3.05-.31,4.28-.92c1.23-.61,2.25-1.45,3.06-2.51.81-1.06,1.43-2.29,1.84-3.68.42-1.38.62-2.86.62-4.43v-.67c0-1.55-.21-3.02-.62-4.4-.42-1.38-1.04-2.61-1.86-3.69-.82-1.07-1.85-1.92-3.08-2.54-1.23-.62-2.67-.93-4.31-.93s-3.05.31-4.28.93c-1.23.62-2.26,1.47-3.08,2.54-.82,1.08-1.44,2.31-1.84,3.69-.41,1.38-.61,2.85-.61,4.4Z"/>
      <path class="cls-22" d="M609.71,379.19h5.96v38.52l-.51,6.1h-5.45v-44.62ZM639.11,407.84v.61c0,2.29-.3,4.4-.9,6.35-.6,1.95-1.48,3.64-2.63,5.07-1.15,1.43-2.56,2.55-4.23,3.34-1.67.79-3.58,1.19-5.74,1.19s-4.13-.34-5.79-1.03c-1.66-.69-3.05-1.68-4.18-2.98-1.13-1.3-2.04-2.87-2.71-4.71-.67-1.84-1.14-3.91-1.39-6.22v-2.67c.26-2.32.72-4.41,1.39-6.25.67-1.84,1.58-3.41,2.71-4.72,1.13-1.31,2.52-2.3,4.17-2.99,1.65-.69,3.56-1.03,5.74-1.03s4.11.38,5.8,1.15c1.69.77,3.1,1.85,4.25,3.27,1.14,1.41,2.01,3.1,2.61,5.07.6,1.97.9,4.15.9,6.55ZM633.15,408.45v-.61c0-1.57-.16-3.05-.48-4.43-.32-1.38-.83-2.6-1.54-3.66-.71-1.06-1.63-1.89-2.79-2.5-1.15-.61-2.58-.92-4.26-.92-1.5,0-2.79.23-3.9.7-1.1.46-2.04,1.09-2.81,1.87-.77.78-1.39,1.68-1.88,2.67s-.84,2.03-1.07,3.09v7c.34,1.36.9,2.66,1.68,3.91.78,1.25,1.83,2.27,3.14,3.06,1.31.79,2.94,1.19,4.89,1.19,1.6,0,2.98-.29,4.12-.89,1.14-.59,2.07-1.41,2.79-2.46.72-1.05,1.25-2.26,1.59-3.63.34-1.38.51-2.85.51-4.42Z"/>
      <path class="cls-22" d="M645.7,408.45v-.67c0-2.27.36-4.37,1.09-6.32.73-1.95,1.77-3.64,3.14-5.08,1.37-1.44,3.02-2.57,4.97-3.37,1.94-.8,4.12-1.21,6.54-1.21s4.63.4,6.59,1.21c1.96.8,3.62,1.93,5,3.37,1.38,1.44,2.43,3.14,3.16,5.08.73,1.95,1.09,4.05,1.09,6.32v.67c0,2.27-.36,4.37-1.09,6.3-.73,1.94-1.78,3.63-3.16,5.07-1.38,1.44-3.04,2.57-4.97,3.37-1.93.8-4.12,1.21-6.56,1.21s-4.63-.4-6.57-1.21c-1.94-.8-3.61-1.93-4.98-3.37s-2.43-3.13-3.16-5.07c-.73-1.94-1.09-4.04-1.09-6.3ZM651.63,407.78v.67c0,1.57.2,3.05.61,4.43.41,1.39,1.02,2.61,1.84,3.68.82,1.07,1.85,1.9,3.09,2.51,1.24.61,2.68.92,4.33.92s3.05-.31,4.28-.92c1.23-.61,2.25-1.45,3.06-2.51.81-1.06,1.43-2.29,1.84-3.68.42-1.38.62-2.86.62-4.43v-.67c0-1.55-.21-3.02-.62-4.4-.42-1.38-1.04-2.61-1.86-3.69-.82-1.07-1.85-1.92-3.08-2.54-1.23-.62-2.67-.93-4.31-.93s-3.05.31-4.28.93c-1.23.62-2.26,1.47-3.08,2.54-.82,1.08-1.44,2.31-1.84,3.69-.41,1.38-.61,2.85-.61,4.4Z"/>
      <path class="cls-22" d="M699.89,392.38v4.13h-18.75v-4.13h18.75ZM687.48,384.74h5.93v31.29c0,1.07.18,1.87.55,2.41.36.54.83.9,1.41,1.08.58.17,1.2.26,1.86.26.49,0,1.01-.04,1.56-.13.54-.09.96-.16,1.23-.22l.03,4.39c-.47.14-1.08.27-1.84.39-.76.13-1.67.19-2.74.19-1.45,0-2.79-.26-4.01-.78-1.22-.52-2.19-1.4-2.9-2.63-.72-1.23-1.07-2.89-1.07-4.98v-31.26Z"/>
      <path class="cls-22" d="M707.54,384.04c0-.87.29-1.61.88-2.21.59-.6,1.46-.9,2.61-.9s2,.3,2.61.9c.61.6.91,1.34.91,2.21s-.3,1.54-.91,2.14c-.61.59-1.48.89-2.61.89s-2.03-.29-2.61-.89c-.59-.59-.88-1.3-.88-2.14ZM713.95,392.38v31.44h-5.96v-31.44h5.96Z"/>
      <path class="cls-22" d="M738.01,419.98c1.41,0,2.71-.26,3.91-.78,1.2-.52,2.18-1.24,2.95-2.16.77-.92,1.21-1.97,1.31-3.15h5.64c-.11,1.86-.8,3.59-2.07,5.19-1.27,1.6-2.93,2.89-4.99,3.86-2.05.98-4.31,1.47-6.76,1.47-2.61,0-4.88-.42-6.81-1.25-1.93-.83-3.54-1.98-4.81-3.43-1.27-1.45-2.22-3.12-2.85-5.01-.63-1.89-.95-3.89-.95-6v-1.22c0-2.11.31-4.11.95-6,.63-1.89,1.58-3.56,2.85-5.01,1.27-1.45,2.87-2.6,4.81-3.43,1.93-.83,4.2-1.25,6.81-1.25s5.09.5,7.12,1.5c2.03,1,3.63,2.35,4.79,4.07,1.16,1.71,1.8,3.66,1.91,5.83h-5.64c-.11-1.3-.51-2.47-1.2-3.52-.69-1.05-1.63-1.88-2.82-2.51-1.19-.63-2.57-.94-4.15-.94-1.82,0-3.34.32-4.57.97-1.23.65-2.2,1.52-2.92,2.61-.72,1.09-1.23,2.31-1.54,3.63-.31,1.33-.46,2.68-.46,4.05v1.22c0,1.38.15,2.73.45,4.07.3,1.34.81,2.55,1.52,3.63.72,1.08,1.69,1.95,2.92,2.6s2.76.97,4.6.97Z"/>
      <path class="cls-22" d="M805.17,410.37h6.16c-.32,2.67-1.17,5.06-2.53,7.18-1.37,2.11-3.3,3.78-5.8,5.01-2.5,1.23-5.62,1.84-9.36,1.84-2.74,0-5.22-.46-7.45-1.39-2.23-.93-4.15-2.25-5.75-3.97-1.6-1.71-2.84-3.78-3.7-6.19-.87-2.41-1.3-5.1-1.3-8.06v-4.21c0-2.96.43-5.65,1.3-8.06.87-2.41,2.12-4.48,3.75-6.2,1.63-1.72,3.61-3.05,5.91-3.98,2.31-.93,4.91-1.39,7.79-1.39,3.53,0,6.51.6,8.94,1.8,2.44,1.2,4.33,2.86,5.69,4.98,1.36,2.12,2.2,4.58,2.52,7.36h-6.16c-.3-1.98-.85-3.67-1.67-5.1-.81-1.42-1.97-2.52-3.46-3.3-1.5-.77-3.45-1.16-5.87-1.16-2.07,0-3.9.36-5.47,1.07-1.57.72-2.89,1.73-3.94,3.05-1.06,1.32-1.85,2.9-2.39,4.74-.53,1.84-.8,3.88-.8,6.13v4.27c0,2.07.24,4.02.72,5.84.48,1.82,1.21,3.42,2.2,4.79.98,1.38,2.23,2.46,3.75,3.24,1.52.78,3.31,1.18,5.39,1.18,2.63,0,4.72-.38,6.28-1.13s2.74-1.84,3.54-3.25c.8-1.41,1.37-3.11,1.72-5.08Z"/>
      <path class="cls-22" d="M817.91,408.45v-.67c0-2.27.36-4.37,1.09-6.32.73-1.95,1.77-3.64,3.14-5.08,1.37-1.44,3.02-2.57,4.97-3.37,1.94-.8,4.12-1.21,6.54-1.21s4.63.4,6.59,1.21c1.96.8,3.62,1.93,5,3.37,1.38,1.44,2.43,3.14,3.16,5.08.73,1.95,1.09,4.05,1.09,6.32v.67c0,2.27-.36,4.37-1.09,6.3-.73,1.94-1.78,3.63-3.16,5.07-1.38,1.44-3.04,2.57-4.97,3.37-1.93.8-4.12,1.21-6.56,1.21s-4.63-.4-6.57-1.21c-1.94-.8-3.61-1.93-4.98-3.37s-2.43-3.13-3.16-5.07c-.73-1.94-1.09-4.04-1.09-6.3ZM823.84,407.78v.67c0,1.57.2,3.05.61,4.43.41,1.39,1.02,2.61,1.84,3.68.82,1.07,1.85,1.9,3.09,2.51,1.24.61,2.68.92,4.33.92s3.05-.31,4.28-.92c1.23-.61,2.25-1.45,3.06-2.51.81-1.06,1.43-2.29,1.84-3.68.42-1.38.62-2.86.62-4.43v-.67c0-1.55-.21-3.02-.62-4.4-.42-1.38-1.04-2.61-1.86-3.69-.82-1.07-1.85-1.92-3.08-2.54-1.23-.62-2.67-.93-4.31-.93s-3.05.31-4.28.93c-1.23.62-2.26,1.47-3.08,2.54-.82,1.08-1.44,2.31-1.84,3.69-.41,1.38-.61,2.85-.61,4.4Z"/>
      <path class="cls-22" d="M856.17,408.45v-.61c0-2.4.31-4.59.95-6.55.63-1.97,1.54-3.66,2.72-5.07,1.19-1.41,2.62-2.5,4.31-3.27,1.69-.76,3.59-1.15,5.71-1.15s4.09.34,5.72,1.03c1.63.69,3.02,1.69,4.17,2.99,1.14,1.31,2.05,2.88,2.71,4.72.66,1.84,1.12,3.92,1.38,6.25v2.67c-.24,2.31-.69,4.38-1.36,6.22-.67,1.84-1.58,3.41-2.73,4.71-1.14,1.3-2.54,2.29-4.18,2.98-1.65.69-3.57,1.03-5.77,1.03-2.07,0-3.95-.4-5.63-1.19-1.68-.79-3.12-1.91-4.31-3.34-1.2-1.43-2.11-3.12-2.74-5.07-.63-1.95-.95-4.06-.95-6.35ZM880.06,392.38h5.39v30.77c0,2.77-.62,5.13-1.86,7.09-1.24,1.96-2.97,3.44-5.18,4.46-2.21,1.02-4.76,1.52-7.65,1.52-1.2,0-2.6-.17-4.22-.51-1.61-.34-3.2-.91-4.75-1.71-1.55-.8-2.85-1.88-3.9-3.24l3.11-3.2c1.45,1.59,2.98,2.69,4.57,3.31,1.59.62,3.17.93,4.73.93,1.88,0,3.5-.32,4.87-.96,1.37-.64,2.43-1.58,3.19-2.83.76-1.25,1.14-2.78,1.14-4.6v-24.11l.54-6.91ZM862.1,407.84v.61c0,1.57.18,3.04.53,4.42.35,1.38.9,2.59,1.64,3.63s1.68,1.86,2.84,2.46c1.15.59,2.53.89,4.14.89,1.97,0,3.59-.38,4.87-1.13s2.3-1.75,3.06-2.99c.76-1.24,1.35-2.59,1.78-4.04v-7c-.24-1.07-.59-2.1-1.07-3.09s-1.1-1.89-1.86-2.67c-.76-.78-1.69-1.41-2.81-1.87-1.11-.46-2.42-.7-3.91-.7-1.62,0-3.02.31-4.18.92-1.17.61-2.12,1.44-2.85,2.5-.74,1.06-1.28,2.28-1.64,3.66-.35,1.39-.53,2.86-.53,4.43Z"/>
      <path class="cls-22" d="M901.04,399.09v24.72h-5.93v-31.44h5.61l.32,6.71ZM899.63,406.91l-2.47-.09c.02-2.15.37-4.14,1.06-5.97.68-1.83,1.65-3.42,2.89-4.78,1.24-1.36,2.72-2.41,4.44-3.15,1.72-.75,3.63-1.12,5.72-1.12,1.71,0,3.25.21,4.62.62,1.37.42,2.54,1.08,3.51,1.99.97.91,1.72,2.09,2.23,3.53.51,1.44.77,3.2.77,5.27v20.6h-5.96v-20.66c0-1.65-.27-2.97-.8-3.97-.53-1-1.31-1.72-2.34-2.18-1.03-.45-2.29-.68-3.78-.68s-2.82.28-4.02.84c-1.21.56-2.24,1.34-3.11,2.32-.87.99-1.54,2.12-2.02,3.38-.48,1.27-.72,2.61-.72,4.02Z"/>
      <path class="cls-22" d="M932.06,384.04c0-.87.29-1.61.88-2.21.59-.6,1.46-.9,2.61-.9s2,.3,2.61.9c.61.6.91,1.34.91,2.21s-.3,1.54-.91,2.14c-.61.59-1.48.89-2.61.89s-2.03-.29-2.61-.89c-.59-.59-.88-1.3-.88-2.14ZM938.47,392.38v31.44h-5.96v-31.44h5.96Z"/>
      <path class="cls-22" d="M963.17,392.38v4.13h-18.75v-4.13h18.75ZM950.76,384.74h5.93v31.29c0,1.07.18,1.87.55,2.41.36.54.83.9,1.41,1.08.58.17,1.2.26,1.86.26.49,0,1.01-.04,1.56-.13.54-.09.96-.16,1.23-.22l.03,4.39c-.47.14-1.08.27-1.84.39-.76.13-1.67.19-2.74.19-1.45,0-2.79-.26-4.01-.78-1.22-.52-2.19-1.4-2.9-2.63-.72-1.23-1.07-2.89-1.07-4.98v-31.26Z"/>
      <path class="cls-22" d="M970.81,384.04c0-.87.29-1.61.88-2.21.59-.6,1.46-.9,2.61-.9s2,.3,2.61.9c.61.6.91,1.34.91,2.21s-.3,1.54-.91,2.14c-.61.59-1.48.89-2.61.89s-2.03-.29-2.61-.89c-.59-.59-.88-1.3-.88-2.14ZM977.23,392.38v31.44h-5.96v-31.44h5.96Z"/>
      <path class="cls-22" d="M985.83,408.45v-.67c0-2.27.36-4.37,1.09-6.32.73-1.95,1.77-3.64,3.14-5.08,1.37-1.44,3.02-2.57,4.97-3.37,1.94-.8,4.12-1.21,6.54-1.21s4.63.4,6.59,1.21c1.96.8,3.62,1.93,5,3.37,1.38,1.44,2.43,3.14,3.16,5.08.73,1.95,1.09,4.05,1.09,6.32v.67c0,2.27-.36,4.37-1.09,6.3-.73,1.94-1.78,3.63-3.16,5.07-1.38,1.44-3.04,2.57-4.97,3.37-1.93.8-4.12,1.21-6.56,1.21s-4.63-.4-6.57-1.21c-1.94-.8-3.61-1.93-4.98-3.37s-2.43-3.13-3.16-5.07c-.73-1.94-1.09-4.04-1.09-6.3ZM991.76,407.78v.67c0,1.57.2,3.05.61,4.43.41,1.39,1.02,2.61,1.84,3.68.82,1.07,1.85,1.9,3.09,2.51,1.24.61,2.68.92,4.33.92s3.05-.31,4.28-.92c1.23-.61,2.25-1.45,3.06-2.51.81-1.06,1.43-2.29,1.84-3.68.42-1.38.62-2.86.62-4.43v-.67c0-1.55-.21-3.02-.62-4.4-.42-1.38-1.04-2.61-1.86-3.69-.82-1.07-1.85-1.92-3.08-2.54-1.23-.62-2.67-.93-4.31-.93s-3.05.31-4.28.93c-1.23.62-2.26,1.47-3.08,2.54-.82,1.08-1.44,2.31-1.84,3.69-.41,1.38-.61,2.85-.61,4.4Z"/>
      <path class="cls-22" d="M1031.44,399.09v24.72h-5.93v-31.44h5.61l.32,6.71ZM1030.03,406.91l-2.47-.09c.02-2.15.37-4.14,1.06-5.97.68-1.83,1.65-3.42,2.89-4.78,1.24-1.36,2.72-2.41,4.44-3.15,1.72-.75,3.63-1.12,5.72-1.12,1.71,0,3.25.21,4.62.62,1.37.42,2.54,1.08,3.51,1.99.97.91,1.72,2.09,2.23,3.53.51,1.44.77,3.2.77,5.27v20.6h-5.96v-20.66c0-1.65-.27-2.97-.8-3.97-.53-1-1.31-1.72-2.34-2.18-1.03-.45-2.29-.68-3.78-.68s-2.82.28-4.02.84c-1.21.56-2.24,1.34-3.11,2.32-.87.99-1.54,2.12-2.02,3.38-.48,1.27-.72,2.61-.72,4.02Z"/>
      <path class="cls-22" d="M1086.45,381.52v42.3h-6.19v-42.3h6.19ZM1108.57,419.26v4.56h-23.34v-4.56h23.34Z"/>
      <path class="cls-22" d="M1136.86,404.76l.06,3.78h-6c-1.69,0-3.2.12-4.52.36-1.33.24-2.44.61-3.33,1.09-.9.48-1.58,1.09-2.05,1.82-.47.73-.71,1.57-.71,2.54s.25,1.89.74,2.7c.49.81,1.23,1.46,2.23,1.93.99.48,2.22.71,3.67.71,1.82,0,3.42-.35,4.81-1.05,1.39-.7,2.5-1.55,3.32-2.56.82-1.01,1.27-1.99,1.33-2.93l2.53,2.59c-.15.81-.56,1.71-1.22,2.7-.66.99-1.54,1.93-2.64,2.83-1.1.9-2.4,1.65-3.91,2.24-1.51.59-3.2.89-5.08.89-2.35,0-4.41-.42-6.17-1.25-1.76-.83-3.13-1.95-4.1-3.36-.97-1.4-1.46-2.98-1.46-4.72s.36-3.17,1.09-4.46c.73-1.29,1.77-2.36,3.14-3.22,1.37-.86,3.01-1.52,4.94-1.96,1.92-.45,4.07-.67,6.44-.67h6.89ZM1135.83,418.44v-16.18c0-1.24-.27-2.32-.82-3.24s-1.36-1.63-2.45-2.14c-1.09-.5-2.44-.76-4.04-.76-1.5,0-2.8.23-3.93.7s-2,1.08-2.63,1.83c-.63.76-.95,1.57-.95,2.44h-5.93c0-1.12.32-2.24.96-3.34.64-1.1,1.57-2.11,2.77-3.01,1.21-.9,2.66-1.62,4.36-2.15,1.7-.53,3.6-.8,5.69-.8,2.52,0,4.75.39,6.68,1.16,1.93.77,3.45,1.94,4.55,3.5,1.1,1.56,1.65,3.51,1.65,5.85v14.64c0,1.05.1,2.16.3,3.34.2,1.18.51,2.2.91,3.05v.46h-6.19c-.3-.62-.53-1.45-.71-2.48-.17-1.04-.26-2-.26-2.89Z"/>
      <path class="cls-22" d="M1151.72,379.19h5.96v38.52l-.51,6.1h-5.45v-44.62ZM1181.11,407.84v.61c0,2.29-.3,4.4-.9,6.35-.6,1.95-1.47,3.64-2.63,5.07-1.15,1.43-2.56,2.55-4.23,3.34-1.67.79-3.58,1.19-5.74,1.19s-4.13-.34-5.79-1.03c-1.66-.69-3.05-1.68-4.18-2.98-1.13-1.3-2.04-2.87-2.71-4.71-.67-1.84-1.14-3.91-1.39-6.22v-2.67c.26-2.32.72-4.41,1.39-6.25.67-1.84,1.58-3.41,2.71-4.72,1.13-1.31,2.52-2.3,4.17-2.99,1.65-.69,3.56-1.03,5.74-1.03s4.11.38,5.8,1.15c1.69.77,3.1,1.85,4.25,3.27,1.14,1.41,2.01,3.1,2.61,5.07s.9,4.15.9,6.55ZM1175.15,408.45v-.61c0-1.57-.16-3.05-.48-4.43-.32-1.38-.83-2.6-1.54-3.66-.71-1.06-1.63-1.89-2.79-2.5-1.15-.61-2.58-.92-4.26-.92-1.5,0-2.79.23-3.9.7s-2.04,1.09-2.8,1.87c-.77.78-1.39,1.68-1.88,2.67-.48,1-.84,2.03-1.07,3.09v7c.34,1.36.9,2.66,1.68,3.91.78,1.25,1.83,2.27,3.14,3.06,1.31.79,2.94,1.19,4.89,1.19,1.6,0,2.98-.29,4.12-.89s2.07-1.41,2.79-2.46,1.25-2.26,1.59-3.63c.34-1.38.51-2.85.51-4.42Z"/>
      <path class="cls-22" d="M1187.7,408.45v-.67c0-2.27.36-4.37,1.09-6.32.73-1.95,1.77-3.64,3.14-5.08,1.37-1.44,3.02-2.57,4.97-3.37,1.94-.8,4.12-1.21,6.54-1.21s4.63.4,6.59,1.21c1.96.8,3.62,1.93,5,3.37,1.38,1.44,2.43,3.14,3.16,5.08.73,1.95,1.09,4.05,1.09,6.32v.67c0,2.27-.36,4.37-1.09,6.3-.73,1.94-1.78,3.63-3.16,5.07-1.38,1.44-3.04,2.57-4.97,3.37-1.93.8-4.12,1.21-6.56,1.21s-4.63-.4-6.57-1.21c-1.95-.8-3.61-1.93-4.99-3.37s-2.43-3.13-3.16-5.07c-.73-1.94-1.09-4.04-1.09-6.3ZM1193.63,407.78v.67c0,1.57.2,3.05.61,4.43.41,1.39,1.02,2.61,1.84,3.68.82,1.07,1.85,1.9,3.09,2.51,1.24.61,2.68.92,4.33.92s3.05-.31,4.28-.92c1.23-.61,2.25-1.45,3.06-2.51.81-1.06,1.43-2.29,1.84-3.68.42-1.38.62-2.86.62-4.43v-.67c0-1.55-.21-3.02-.62-4.4s-1.04-2.61-1.86-3.69c-.82-1.07-1.85-1.92-3.08-2.54-1.23-.62-2.67-.93-4.31-.93s-3.05.31-4.28.93c-1.23.62-2.25,1.47-3.08,2.54-.82,1.08-1.44,2.31-1.84,3.69s-.61,2.85-.61,4.4Z"/>
      <path class="cls-22" d="M1233.31,397.32v26.5h-5.93v-31.44h5.77l.16,4.94ZM1244.14,392.21l-.03,5c-.49-.1-.96-.16-1.39-.19-.44-.03-.94-.04-1.49-.04-1.37,0-2.58.19-3.62.58-1.05.39-1.93.93-2.66,1.63s-1.3,1.53-1.71,2.48c-.42.96-.69,2.01-.82,3.15l-1.67.87c0-1.9.21-3.68.62-5.35.42-1.67,1.06-3.14,1.94-4.43.88-1.29,1.99-2.29,3.35-3.02,1.36-.73,2.98-1.09,4.86-1.09.43,0,.92.04,1.47.13.56.09.94.18,1.15.28Z"/>
      <path class="cls-22" d="M1270.48,404.76l.06,3.78h-6c-1.69,0-3.2.12-4.52.36-1.33.24-2.44.61-3.33,1.09-.9.48-1.58,1.09-2.05,1.82-.47.73-.71,1.57-.71,2.54s.25,1.89.74,2.7c.49.81,1.23,1.46,2.23,1.93.99.48,2.22.71,3.67.71,1.82,0,3.42-.35,4.81-1.05,1.39-.7,2.5-1.55,3.32-2.56.82-1.01,1.27-1.99,1.33-2.93l2.53,2.59c-.15.81-.56,1.71-1.22,2.7-.66.99-1.54,1.93-2.64,2.83-1.1.9-2.4,1.65-3.91,2.24-1.51.59-3.2.89-5.08.89-2.35,0-4.41-.42-6.17-1.25-1.76-.83-3.13-1.95-4.1-3.36-.97-1.4-1.46-2.98-1.46-4.72s.36-3.17,1.09-4.46c.73-1.29,1.77-2.36,3.14-3.22,1.37-.86,3.01-1.52,4.94-1.96,1.92-.45,4.07-.67,6.44-.67h6.89ZM1269.45,418.44v-16.18c0-1.24-.27-2.32-.82-3.24s-1.36-1.63-2.45-2.14c-1.09-.5-2.44-.76-4.04-.76-1.5,0-2.8.23-3.93.7s-2,1.08-2.63,1.83c-.63.76-.95,1.57-.95,2.44h-5.93c0-1.12.32-2.24.96-3.34.64-1.1,1.57-2.11,2.77-3.01,1.21-.9,2.66-1.62,4.36-2.15,1.7-.53,3.6-.8,5.69-.8,2.52,0,4.75.39,6.68,1.16,1.93.77,3.45,1.94,4.55,3.5,1.1,1.56,1.65,3.51,1.65,5.85v14.64c0,1.05.1,2.16.3,3.34.2,1.18.51,2.2.91,3.05v.46h-6.19c-.3-.62-.53-1.45-.71-2.48-.17-1.04-.26-2-.26-2.89Z"/>
      <path class="cls-22" d="M1299.89,392.38v4.13h-18.75v-4.13h18.75ZM1287.48,384.74h5.93v31.29c0,1.07.18,1.87.54,2.41.36.54.83.9,1.41,1.08s1.2.26,1.86.26c.49,0,1.01-.04,1.55-.13.54-.09.96-.16,1.23-.22l.03,4.39c-.47.14-1.08.27-1.84.39s-1.67.19-2.74.19c-1.45,0-2.79-.26-4.01-.78-1.22-.52-2.19-1.4-2.9-2.63s-1.07-2.89-1.07-4.98v-31.26Z"/>
      <path class="cls-22" d="M1305.29,408.45v-.67c0-2.27.36-4.37,1.09-6.32.73-1.95,1.77-3.64,3.14-5.08,1.37-1.44,3.02-2.57,4.97-3.37,1.94-.8,4.12-1.21,6.54-1.21s4.63.4,6.59,1.21c1.96.8,3.62,1.93,5,3.37,1.38,1.44,2.43,3.14,3.16,5.08.73,1.95,1.09,4.05,1.09,6.32v.67c0,2.27-.36,4.37-1.09,6.3-.73,1.94-1.78,3.63-3.16,5.07-1.38,1.44-3.04,2.57-4.97,3.37-1.93.8-4.12,1.21-6.56,1.21s-4.63-.4-6.57-1.21c-1.95-.8-3.61-1.93-4.99-3.37s-2.43-3.13-3.16-5.07c-.73-1.94-1.09-4.04-1.09-6.3ZM1311.22,407.78v.67c0,1.57.2,3.05.61,4.43.41,1.39,1.02,2.61,1.84,3.68.82,1.07,1.85,1.9,3.09,2.51,1.24.61,2.68.92,4.33.92s3.05-.31,4.28-.92c1.23-.61,2.25-1.45,3.06-2.51.81-1.06,1.43-2.29,1.84-3.68.42-1.38.62-2.86.62-4.43v-.67c0-1.55-.21-3.02-.62-4.4s-1.04-2.61-1.86-3.69c-.82-1.07-1.85-1.92-3.08-2.54-1.23-.62-2.67-.93-4.31-.93s-3.05.31-4.28.93c-1.23.62-2.25,1.47-3.08,2.54-.82,1.08-1.44,2.31-1.84,3.69s-.61,2.85-.61,4.4Z"/>
      <path class="cls-22" d="M1350.89,397.32v26.5h-5.93v-31.44h5.77l.16,4.94ZM1361.73,392.21l-.03,5c-.49-.1-.96-.16-1.39-.19-.44-.03-.94-.04-1.49-.04-1.37,0-2.58.19-3.62.58-1.05.39-1.93.93-2.66,1.63s-1.3,1.53-1.71,2.48c-.42.96-.69,2.01-.82,3.15l-1.67.87c0-1.9.21-3.68.62-5.35.42-1.67,1.06-3.14,1.94-4.43.88-1.29,1.99-2.29,3.35-3.02,1.36-.73,2.98-1.09,4.86-1.09.43,0,.92.04,1.47.13.56.09.94.18,1.15.28Z"/>
      <path class="cls-22" d="M1371.11,392.38l9.01,24.4,1.54,5.67-4.26,1.98-12.76-32.05h6.48ZM1378.19,420.56l9.65-28.18h6.35l-13.91,36.29c-.32.77-.74,1.61-1.27,2.51-.52.9-1.19,1.76-2,2.57-.81.81-1.79,1.48-2.93,1.99-1.14.51-2.51.77-4.09.77-.47,0-1.07-.06-1.8-.17s-1.24-.21-1.54-.29l-.03-4.36c.17.02.44.04.82.07.37.03.64.04.79.04,1.35,0,2.49-.16,3.43-.48.94-.32,1.74-.85,2.39-1.6s1.21-1.77,1.68-3.06l2.47-6.1Z"/>
    </g>
  </g>
  <g id="_大脑-填充" data-name="大脑-填充">
    <path class="cls-21" d="M378.78,404.94c2.79,10.65-8.35,23.89-17.72,29.81-16.64,10.52-36.1,3.29-38.6,2.31-.55,2.2-1.69,5.49-4.23,8.67-6.65,8.36-17.51,9.21-22.44,9.6-9.31.73-16.83-1.88-21.18-3.86l-.03.05c-5.14,8.5-16.77,11.82-25.62,11.46-11.69-.47-19.51-7.39-21.85-9.64-9.95,5.75-22.05,3.51-28-4.14-2.75.9-15.27,4.68-27.09-1.48-2.45-1.27-8.54-4.45-12.1-11.44-1.4-2.75-2-5.29-2.28-7.03-2.43.57-8.9,1.73-15.83-1.32-6.65-2.92-13.38-9.72-13.83-17.64v.15c0-.05,0-.1,0-.16-18.78-7.2-27.17-25.02-22.44-37.36,4.3-11.21,18.2-14.72,19.9-15.13l251.29-.13c11.15,1.11,20.16,8.77,22.24,18.37,2.61,12.03-6.01,25.48-20.32,28.55.02.08.06.2.09.34Z"/>
  </g>
  <g id="circle">
    <circle class="cls-6" cx="255.3" cy="274.54" r="198.43"/>
    <polygon class="cls-20" points="22.37 244.29 254.68 257.97 27.79 336.61 22.37 244.29"/>
    <polygon class="cls-20" points="485.23 236.6 254.31 265.19 485.72 325.36 485.23 236.6"/>
    <polygon class="cls-20" points="253.73 274.54 433.6 44.61 253.66 0 253.73 274.54"/>
    <polygon class="cls-20" points="255.22 274.54 78.43 44.61 255.3 0 255.22 274.54"/>
  </g>
  <g id="_字母" data-name="字母">
    <g>
      <ellipse class="cls-5" cx="254.71" cy="276.17" rx="185.78" ry="184.16" transform="translate(-50.14 56.6) rotate(-11.55)"/>
      <path class="cls-21" d="M135.39,89.2l6.16-3.07,12.3,21.89,4.99,10.01-7.27,3.63-16.19-32.44ZM138.57,87.62l6.29-3.14,22.71,19.17-1.68-29.66,6.32-3.15,1.88,39.58-5.05,2.52-30.47-25.32ZM169.19,72.34l6.19-3.09,16.19,32.44-7.27,3.63-4.99-10-10.11-22.98Z"/>
      <path class="cls-21" d="M209.99,60.3l7.98,35.37-7.93,1.79-7.98-35.37,7.93-1.79Z"/>
      <path class="cls-21" d="M236.15,55.99l15.63-.3c3.27-.06,6.08.3,8.45,1.08,2.36.78,4.19,1.98,5.48,3.58,1.29,1.6,1.96,3.59,2.01,5.96.04,1.88-.33,3.51-1.09,4.9-.76,1.39-1.85,2.57-3.26,3.52-1.41.96-3.08,1.72-5,2.29l-2.52,1.14-13.8.26-.16-5.4,10.31-.2c1.67-.03,3.06-.31,4.15-.83,1.09-.52,1.91-1.22,2.46-2.11s.81-1.9.78-3.03c-.02-1.21-.32-2.26-.89-3.13-.57-.88-1.42-1.55-2.55-2.01-1.13-.46-2.55-.67-4.27-.64l-7.5.14.59,30.85-8.13.16-.7-36.25ZM261.14,91.77l-10.27-16.04,8.6-.19,10.38,15.72v.35s-8.71.17-8.71.17Z"/>
      <path class="cls-21" d="M286.25,80.53l.12-.51c.45-1.92,1.19-3.62,2.22-5.09,1.03-1.47,2.31-2.66,3.84-3.56,1.53-.9,3.27-1.48,5.23-1.73,1.96-.25,4.09-.1,6.39.44,2.34.55,4.34,1.37,6,2.46,1.66,1.1,2.97,2.39,3.93,3.88.97,1.49,1.59,3.12,1.86,4.9.27,1.78.18,3.63-.27,5.55l-.12.51c-.45,1.91-1.19,3.6-2.22,5.07s-2.31,2.66-3.84,3.58c-1.53.91-3.27,1.49-5.23,1.73-1.96.24-4.1.09-6.42-.45-2.3-.54-4.29-1.35-5.95-2.44-1.67-1.09-2.98-2.38-3.95-3.88-.96-1.5-1.58-3.13-1.86-4.91-.27-1.78-.18-3.62.26-5.53ZM293.96,81.8l-.12.51c-.27,1.15-.39,2.25-.35,3.32.03,1.07.24,2.04.62,2.93.38.89.96,1.65,1.75,2.29.79.64,1.81,1.1,3.06,1.39,1.23.29,2.33.32,3.32.1.98-.22,1.85-.65,2.59-1.27.74-.63,1.37-1.41,1.87-2.35.5-.94.89-1.98,1.16-3.13l.12-.51c.26-1.13.38-2.23.34-3.28-.04-1.06-.25-2.04-.63-2.94-.39-.9-.97-1.68-1.76-2.33-.79-.65-1.81-1.13-3.05-1.42-1.23-.29-2.33-.31-3.32-.07-.99.24-1.85.68-2.58,1.31-.74.64-1.36,1.42-1.86,2.35-.5.93-.88,1.96-1.15,3.09Z"/>
      <path class="cls-21" d="M355.54,106.88l7.2,3.76c-1.31,2.05-3.02,3.58-5.1,4.6-2.09,1.02-4.47,1.43-7.14,1.23-2.68-.2-5.57-1.11-8.68-2.73-2.39-1.25-4.36-2.73-5.9-4.44-1.54-1.71-2.64-3.59-3.3-5.63-.66-2.04-.86-4.18-.59-6.43.26-2.25,1.01-4.55,2.23-6.88l1.28-2.45c1.22-2.34,2.69-4.26,4.41-5.76,1.72-1.5,3.61-2.56,5.68-3.17,2.07-.62,4.25-.78,6.56-.49s4.66,1.06,7.05,2.31c3.11,1.62,5.49,3.48,7.13,5.56,1.65,2.09,2.62,4.28,2.93,6.58.31,2.3.02,4.6-.87,6.9l-7.2-3.76c.57-1.43.82-2.75.76-3.98-.06-1.23-.5-2.38-1.34-3.44s-2.15-2.06-3.95-3c-1.4-.73-2.74-1.15-4.03-1.26-1.29-.11-2.51.09-3.67.6-1.16.51-2.25,1.33-3.28,2.45-1.03,1.12-1.99,2.53-2.88,4.24l-1.3,2.49c-.85,1.63-1.46,3.18-1.82,4.64-.36,1.46-.45,2.81-.25,4.05.2,1.24.69,2.38,1.5,3.39.8,1.02,1.93,1.91,3.38,2.66,1.76.92,3.32,1.44,4.68,1.54,1.35.11,2.56-.14,3.62-.75,1.06-.61,2.02-1.55,2.89-2.82Z"/>
    </g>
  </g>
  <g id="_蛇杖" data-name="蛇杖">
    <polyline class="cls-19" points="258.26 105.52 254.66 358.09 254.74 358.09 251.14 105.52"/>
    <polyline class="cls-22" points="258.98 107.15 256.49 357.49 254.7 357.49 252.91 357.49 250.52 107.15"/>
    <circle class="cls-22" cx="254.7" cy="109.15" r="9.92"/>
  </g>
  <g id="snake">
    <path class="cls-21" d="M249.15,340.2c6.22-5.11,12.89-10.59,13.46-18.94.35-5.05-1.67-9.28-2.41-10.7-1.35-2.56-2.74-3.82-7.69-8.58-6.03-5.8-9.05-8.7-9.64-9.41-3.47-4.18-7.76-9.34-7.72-16.28.04-6.04,3.35-10.94,5.16-13.6.91-1.34,2.28-2.83,5.02-5.8,3.6-3.91,5.6-5.74,13.24-13.37,3.67-3.67,4.11-4.14,4.7-4.83,2.9-3.38,5.92-6.98,6.95-12.18.25-1.29.61-3.18.2-5.58-.45-2.6-1.68-5.02-3.86-7.48-4.72-5.32-11.15-7.71-15.74-9.92,0,0-10.75-5.17-19.85-14.75-4.85-5.11-10.94-11.52-12.21-21.54-1.01-8.03,1.6-14.42,2.81-16.97,3.98-8.38,10.58-12.39,15.89-15.61,3.44-2.09,14.93-8.84,30.42-7.6,3.8.31,8.93.77,14.69,3.71,14.63,7.46,18.09,23.07,17.5,25.6-.15.64-.83,3.43-3.16,4.96-4.57,2.99-11.67-1.32-14.61-3.76-1.78-1.47-5.06-4.19-5.7-7.87-.12-.67-.26-2.05-1.1-3.7-.94-1.86-2.21-2.96-2.53-3.23-1.32-1.11-3.34-2.12-7.1-2.3-12.45-.6-22.24,6.37-22.24,6.37-3.6,2.62-8.11,5.69-10.06,11.64-1.38,4.22-.85,7.91-.61,9.23.73,3.97,2.66,7.06,5.47,10.33,4.53,5.28,9.23,8.4,18.57,14.33,4.9,3.11,8.01,4.82,13.13,8.72,3.69,2.8,5.56,4.24,7.23,6.42,1.09,1.42,5.43,7.41,5.02,15.52-.27,5.44-2.54,9.08-5.75,14.22-3.6,5.76-7.37,9.49-13.13,15.13-6.53,6.39-8.67,7.44-12.63,12.7-3.53,4.69-5.68,7.62-5.5,11.63.21,4.83,3.67,8.71,6.4,11.77,1.92,2.16,2.51,2.21,7.07,6.85,2.4,2.45,3.6,3.67,4.87,5.24,2.01,2.49,4.36,5.45,5.9,9.78.45,1.27,1.32,3.72,1.43,6.72.35,9.23-6.72,16.2-9.07,18.52-3.25,3.21-6.26,4.91-9.65,6.78-4.37,2.42-10.59,5.22-18.65,6.98,7.19-2.92,12.29-6.54,15.49-9.17Z"/>
    <ellipse class="cls-17" cx="292.57" cy="149" rx=".48" ry="3.37" transform="translate(-34.3 179.9) rotate(-32.39)"/>
  </g>
  <g id="_机械臂-衔接" data-name="机械臂-衔接">
    <line class="cls-3" x1="309.19" y1="200.37" x2="345.86" y2="163.04"/>
    <line class="cls-3" x1="411.97" y1="234.53" x2="433.6" y2="267.07"/>
    <line class="cls-3" x1="351.94" y1="255.63" x2="365.36" y2="290.45"/>
    <line class="cls-3" x1="301.13" y1="271.98" x2="303.75" y2="308.73"/>
    <polyline class="cls-13" points="332.85 358.09 310.01 336.62 292.22 348.55 292.22 355.36"/>
    <line class="cls-3" x1="200.12" y1="200.37" x2="163.46" y2="163.04"/>
    <line class="cls-3" x1="97.35" y1="234.53" x2="62.58" y2="286.82"/>
    <line class="cls-3" x1="157.38" y1="255.63" x2="143.96" y2="290.45"/>
    <line class="cls-3" x1="208.18" y1="271.98" x2="205.57" y2="308.73"/>
    <polyline class="cls-13" points="176.46 358.09 199.3 336.62 217.09 348.55 217.09 355.36"/>
  </g>
  <g id="_大脑-描边" data-name="大脑-描边">
    <path class="cls-7" d="M128.01,409.79c-18.78-7.14-27.17-24.78-22.44-37,4.3-11.1,18.2-14.58,19.9-14.99l251.29-.13c11.15,1.1,20.16,8.69,22.24,18.2,2.61,11.92-6.01,25.23-20.32,28.28"/>
    <path class="cls-7" d="M199.13,448.33c-2.75.89-15.27,4.64-27.09-1.46-2.45-1.26-8.54-4.41-12.1-11.33-1.4-2.73-2-5.24-2.28-6.97-2.43.56-8.9,1.71-15.83-1.3-1.45-.63-13.23-5.99-13.83-17.54-.54-10.29,8.25-16.72,8.98-17.24"/>
    <path class="cls-7" d="M227.12,452.43c-9.95,5.7-22.05,3.48-28-4.1-4.38-5.58-5-13.52-1.85-20.52"/>
    <path class="cls-7" d="M267.22,426.95c1.4,1.07,10.49,8.23,9.66,17.37-1.04,11.39-16.74,17.76-27.9,17.66-1.57-.01-13.67-.31-21.85-9.55-2.55-2.88-3.97-5.78-4.78-7.83"/>
    <path class="cls-7" d="M367.6,391.5c2.95,1.68,9.27,5.84,11.19,12.98,3.38,12.62-9.67,24.67-17.72,29.53-16.8,10.13-35.73,3.37-38.6,2.29-.55,2.18-1.69,5.43-4.23,8.59-6.65,8.28-17.51,9.12-22.44,9.5-9.31.72-16.83-1.86-21.18-3.82"/>
  </g>
  <g id="_大脑-电波_" data-name="大脑-电波？">
    <polyline class="cls-9" points="240.92 445.04 240.92 430.88 254.66 418.11 254.66 357.74"/>
    <polyline class="cls-8" points="235.88 382.43 235.88 408.09 217.15 425.39"/>
    <polyline class="cls-4" points="217.09 357.76 217.09 396.05 196.54 414.93 155.57 414.93"/>
    <polyline class="cls-9" points="179.53 357.78 179.53 375.52 140.66 375.52"/>
    <polyline class="cls-8" points="171.65 396.39 186 396.39 198.64 384.78 198.64 375.52"/>
    <polyline class="cls-8" points="273.44 382.43 273.44 408.09 292.17 425.4"/>
    <polyline class="cls-4" points="292.22 357.76 292.22 396.05 312.78 414.93 353.75 414.93"/>
    <polyline class="cls-9" points="329.79 357.78 329.79 375.52 368.66 375.52"/>
    <polyline class="cls-8" points="337.67 396.39 323.32 396.39 310.68 384.79 310.68 375.52"/>
  </g>
  <g id="_大脑-电波末端" data-name="大脑-电波末端">
    <circle class="cls-20" cx="141.12" cy="375.52" r="5.67"/>
    <circle class="cls-20" cx="171.65" cy="396.39" r="4.25"/>
    <circle class="cls-20" cx="198.64" cy="372.24" r="4.25"/>
    <circle class="cls-20" cx="235.88" cy="382.43" r="4.25"/>
    <circle class="cls-20" cx="155.57" cy="414.93" r="5.67"/>
    <circle class="cls-20" cx="217.09" cy="425.39" r="4.25"/>
    <circle class="cls-20" cx="240.92" cy="445.04" r="5.67"/>
    <circle class="cls-20" cx="368.2" cy="375.52" r="5.67"/>
    <circle class="cls-20" cx="337.67" cy="396.39" r="4.25"/>
    <circle class="cls-20" cx="310.68" cy="372.24" r="4.25"/>
    <circle class="cls-20" cx="273.44" cy="382.43" r="4.25"/>
    <circle class="cls-20" cx="353.75" cy="414.93" r="5.67"/>
    <circle class="cls-20" cx="292.22" cy="425.4" r="4.25"/>
  </g>
  <g id="_机械臂-末端" data-name="机械臂-末端">
    <line class="cls-10" x1="449.09" y1="289.38" x2="443.4" y2="281"/>
    <line class="cls-1" x1="441.32" y1="284.35" x2="438.08" y2="295.87"/>
    <line class="cls-12" x1="449.2" y1="289.54" x2="455.2" y2="298.38"/>
    <polyline class="cls-12" points="438.4 294.81 436.89 300.22 440.89 306.12"/>
    <line class="cls-1" x1="447.28" y1="280.3" x2="459.17" y2="281.54"/>
    <polyline class="cls-12" points="458.08 281.45 463.66 282.03 467.67 287.93"/>
    <line class="cls-2" x1="173.56" y1="173.24" x2="147.8" y2="146.84"/>
    <line class="cls-18" x1="132.22" y1="168.09" x2="125.44" y2="174.65"/>
    <polygon class="cls-16" points="138.35 157.4 130.02 165.45 129.04 171.16 134.78 170.37 143.11 162.32 138.35 157.4"/>
    <line class="cls-15" x1="139.85" y1="162.96" x2="136.36" y2="159.35"/>
    <line class="cls-15" x1="137.42" y1="163" x2="135.09" y2="160.58"/>
    <line class="cls-15" x1="136.14" y1="164.23" x2="133.81" y2="161.82"/>
    <line class="cls-15" x1="134.87" y1="165.46" x2="132.54" y2="163.05"/>
    <line class="cls-15" x1="134.75" y1="167.89" x2="131.26" y2="164.28"/>
    <rect class="cls-14" x="419.6" y="250.71" width="28.7" height="32.96" rx="5.67" ry="5.67" transform="translate(-75.15 289.99) rotate(-34.19)"/>
    <path class="cls-14" d="M433.86,280.41h20.74v1.01c0,1.56-1.27,2.83-2.83,2.83h-15.07c-1.56,0-2.83-1.27-2.83-2.83v-1.01h0Z" transform="translate(-81.88 298.39) rotate(-34.19)"/>
    <path class="cls-14" d="M419.68,251.2h8.5c.78,0,1.42.64,1.42,1.42v1.07h-11.34v-1.07c0-.78.64-1.42,1.42-1.42Z" transform="translate(-68.6 281.82) rotate(-34.19)"/>
    <rect class="cls-14" x="158.02" y="157.84" width="32.96" height="32.96" rx="5.67" ry="5.67" transform="translate(-72.12 170.32) rotate(-44.04)"/>
    <rect class="cls-14" x="138.75" y="137.76" width="24.04" height="24.04" rx="2.83" ry="2.83" transform="translate(-61.73 146.93) rotate(-44.04)"/>
    <path class="cls-14" d="M154.79,139.58h11.34v.98c0,.78-.64,1.42-1.42,1.42h-8.51c-.78,0-1.42-.64-1.42-1.42v-.98h0Z" transform="translate(170.81 353.99) rotate(-134.04)"/>
    <path class="cls-14" d="M137.2,157.96h8.51c.78,0,1.42.64,1.42,1.42v.98h-11.34v-.98c0-.78.64-1.42,1.42-1.42Z" transform="translate(125.38 371.48) rotate(-134.04)"/>
    <rect class="cls-14" x="73.75" y="245.61" width="16.17" height="24.57" rx="2.83" ry="2.83" transform="translate(157.41 -1.91) rotate(33.82)"/>
    <path class="cls-14" d="M54.29,284.39l-13.31,5.52c1.37,2.99,4.47,8.63,10.8,12.86,6.31,4.23,12.7,4.95,15.98,5.08l.05-14.59,10.28-15.33c.62-.93.37-2.18-.55-2.8l-10.08-6.75c-.93-.62-2.18-.37-2.8.55l-10.36,15.46Z"/>
    <rect class="cls-14" x="330.12" y="159.8" width="16.17" height="21.62" rx="2.83" ry="2.83" transform="translate(219.7 -189.18) rotate(45)"/>
    <path class="cls-3" d="M355.99,140.89l-7.33-8.89c-.25-.02-.48-.08-.6,0-6.1,5.02-13.15,15.39-6.01,27.66,3.85,6.62,12.58,10.77,20.83,10.02l1.47-8.59"/>
    <rect class="cls-20" x="361.8" y="169.26" width="11.34" height="4.02" rx="1.42" ry="1.42" transform="translate(598.32 -162.02) rotate(99.72)"/>
    <path class="cls-21" d="M365.47,158.27h13.69c1.56,0,2.83,1.27,2.83,2.83v3.13c0,.78-.64,1.42-1.42,1.42h-16.53c-.78,0-1.42-.64-1.42-1.42v-3.13c0-1.56,1.27-2.83,2.83-2.83Z" transform="translate(762.61 50.04) rotate(140.49)"/>
    <rect class="cls-14" x="349.37" y="138.53" width="12.58" height="5.23" rx="1.42" ry="1.42" transform="translate(719.86 23.75) rotate(140.49)"/>
    <rect class="cls-14" x="360.01" y="155.04" width="18.37" height="6.25" rx="1.42" ry="1.42" transform="translate(754.66 45.31) rotate(140.49)"/>
    <circle class="cls-5" cx="433.95" cy="267.07" r="9.69"/>
    <circle class="cls-5" cx="174.51" cy="174.32" r="9.69"/>
    <path class="cls-11" d="M66.54,308.24c-3.09-.16-9.11-.92-15.11-4.94-6.02-4.03-9.01-9.32-10.34-12.12"/>
  </g>
  <g id="_机械臂" data-name="机械臂">
    <path class="cls-14" d="M299.86,326.6c-.69-3.36-3.22-13.04-3.91-16.4-1.27-4.43,1.27-9.1,5.62-10.42,4.42-1.35,9.22,1.23,10.54,5.73,1.22,3.2,4.28,12.74,5.49,15.94"/>
    <path class="cls-14" d="M358.93,282.74c4.23-3.51,10.56-2.96,14.09,1.16,3.59,4.19,3.07,10.67-1.22,14.27-17.21,16.87-34.42,33.74-51.63,50.61-6.68,5.57-16.75,4.66-22.32-2.02-5.57-6.68-4.66-16.75,2.02-22.32,19.69-13.9,39.38-27.8,59.06-41.7Z"/>
    <path class="cls-14" d="M299.43,199.24c.64-5.46,5.61-9.42,11-8.87,5.49.56,9.58,5.62,8.95,11.18-.83,24.09-1.67,48.17-2.5,72.26-1,8.64-8.93,14.92-17.56,13.92s-14.92-8.93-13.92-17.56c4.68-23.64,9.36-47.28,14.04-70.92Z"/>
    <path class="cls-14" d="M409,226.11c4.58-1.6,9.65.8,11.3,5.29,1.68,4.57-.75,9.77-5.4,11.43-19.43,8.66-38.85,17.33-58.28,25.99-7.24,2.55-15.29-1.3-17.85-8.54s1.3-15.29,8.54-17.85c20.56-5.44,41.13-10.89,61.69-16.33Z"/>
    <path class="cls-14" d="M209.46,326.6c.69-3.36,3.22-13.04,3.91-16.4,1.27-4.43-1.27-9.1-5.62-10.42-4.42-1.35-9.22,1.23-10.54,5.73-1.22,3.2-4.28,12.74-5.49,15.94"/>
    <path class="cls-14" d="M150.39,282.74c-4.23-3.51-10.56-2.96-14.09,1.16-3.59,4.19-3.07,10.67,1.22,14.27,17.21,16.87,34.42,33.74,51.63,50.61,6.68,5.57,16.75,4.66,22.32-2.02s4.66-16.75-2.02-22.32c-19.69-13.9-39.38-27.8-59.06-41.7Z"/>
    <path class="cls-14" d="M209.89,199.24c-.64-5.46-5.61-9.42-11-8.87-5.49.56-9.58,5.62-8.95,11.18.83,24.09,1.67,48.17,2.5,72.26,1,8.64,8.93,14.92,17.56,13.92s14.92-8.93,13.92-17.56c-4.68-23.64-9.36-47.28-14.04-70.92Z"/>
    <path class="cls-14" d="M100.32,226.11c-4.58-1.6-9.65.8-11.3,5.29-1.68,4.57.75,9.77,5.4,11.43,19.43,8.66,38.85,17.33,58.28,25.99,7.24,2.55,15.29-1.3,17.85-8.54,2.55-7.24-1.3-15.29-8.54-17.85-20.56-5.44-41.13-10.89-61.69-16.33Z"/>
  </g>
  <g id="_图层_17" data-name="图层 17">
    <polygon class="cls-22" points="251.27 185.51 251.52 212.12 257.94 212.12 258.2 185.2 251.27 185.51"/>
    <polyline class="cls-22" points="252.21 284.15 252.46 310.53 256.96 310.53 257.22 284.15 252.54 284.15"/>
  </g>
</svg>